# xmcd
#
# Track frame offsets:
#	150
#	13350
#	25995
#	39402
#	56255
#	77222
#	90710
#	103675
#	116892
#	135425
#	152952
#	173057
#	184292
#	198155
#	213155
#	229500
#	248080
#	263667
#	281810
#	298020
#	315910
#
# Disc length: 4440
#
# Revision: 1
# Processed by: cddbd v1.5.1PL0 Copyright (c) Steve Scherf et al.
# Submitted via: CDex 1.50beta9
# Normalized: r0:TDELIM( - )
#
DISCID=22115615
DTITLE=Various Artist - CDX Volume 164A - June 1997
DYEAR=1997
DGENRE=Country
TTITLE0=David Lee Murphy - All Lit Up In Love
TTITLE1=Bob Woodruff - Almost Saturday Night
TTITLE2=Dwight Yoakam - Claudette
TTITLE3=Tammy Graham - Cool Water
TTITLE4=Anita Cochran - Daddy Can You See Me
TTITLE5=Ryan Reynolds - Do I Ever Cross Your Mind
TTITLE6=Lorrie Morgan - Go Away
TTITLE7=Royal Wade Kimes - Guardian Angel
TTITLE8=Travis Tritt and Lari White - Helping Me Get Over You
TTITLE9=Jeff Carson - Here's The Deal
TTITLE10=Trisha Yearwood - How Do I Live
TTITLE11=Caryl Mack Parker - It's Good To Be Me
TTITLE12=Rodney Atkins - In A Heartbeat
TTITLE13=Mary Chapin Carpenter - Keeping The Faith
TTITLE14=Tanya Tucker - Ridin' Out The Heartache
TTITLE15=Bryan Smith - (She'll Never Let) Texas Twist-Her
TTITLE16=John Anderson - Somebody Slap Me
TTITLE17=Clint Black and Martina McBride - Still Holding On
TTITLE18=Lee Ann Womack - The Fool
TTITLE19=Alan Jackson - There Goes
TTITLE20=Sara Evans - Three Chords and the Truth
EXTD=YEAR: 1997
EXTT0=
EXTT1=
EXTT2=
EXTT3=
EXTT4=
EXTT5=
EXTT6=
EXTT7=
EXTT8=
EXTT9=
EXTT10=
EXTT11=
EXTT12=
EXTT13=
EXTT14=
EXTT15=
EXTT16=
EXTT17=
EXTT18=
EXTT19=
EXTT20=
PLAYORDER=
